 http://kastatic.com/i2/u/1813980/HuAm7VtMFa.png

General
Complete name                            : Iyaz - Replay (The Prequel Video) 720p HD [Sbyky].mp4
Format                                   : MPEG-4
Format profile                           : Base Media / Version 2
Codec ID                                 : mp42
File size                                : 50.2 MiB
Duration                                 : 3mn 17s
Overall bit rate mode                    : Variable
Overall bit rate                         : 2 135 Kbps
Encoded date                             : UTC 2009-10-18 06:28:01
Tagged date                              : UTC 2009-10-18 06:28:01
gsst                                     : 0
gstd                                     : 197833
gssd                                     : BD592AB07HH

Video
ID                                       : 2
Format                                   : AVC
Format/Info                              : Advanced Video Codec
Format profile                           : High@L3.1
Format settings, CABAC                   : Yes
Format settings, ReFrames                : 3 frames
Codec ID                                 : avc1
Codec ID/Info                            : Advanced Video Coding
Duration                                 : 3mn 17s
Bit rate                                 : 2 010 Kbps
Maximum bit rate                         : 6 569 Kbps
Width                                    : 1 280 pixels
Height                                   : 720 pixels
Display aspect ratio                     : 16:9
Frame rate mode                          : Constant
Frame rate                               : 23.976 fps
Color space                              : YUV
Chroma subsampling                       : 4:2:0
Bit depth                                : 8 bits
Scan type                                : Progressive
Bits/(Pixel*Frame)                       : 0.091
Stream size                              : 47.3 MiB (94%)
Title                                    : (C) 2007 Google Inc. v08.13.2007.
Encoded date                             : UTC 2009-10-18 06:28:01
Tagged date                              : UTC 2009-10-18 06:28:01

Audio
ID                                       : 1
Format                                   : AAC
Format/Info                              : Advanced Audio Codec
Format profile                           : LC
Codec ID                                 : 40
Duration                                 : 3mn 17s
Bit rate mode                            : Variable
Bit rate                                 : 122 Kbps
Maximum bit rate                         : 252 Kbps
Channel(s)                               : 2 channels
Channel positions                        : Front: L R
Sampling rate                            : 44.1 KHz
Compression mode                         : Lossy
Stream size                              : 2.88 MiB (6%)
Title                                    : (C) 2007 Google Inc. v08.13.2007.
Encoded date                             : UTC 2009-10-18 06:28:01
Tagged date                              : UTC 2009-10-18 06:28:01

Shared By Sbyky 
http://kastatic.com/i2/u/1813980/bQg62viaEG.gif